<svg width="24" height="24" viewBox="0 0 24 24" fill="none" xmlns="http://www.w3.org/2000/svg">
<path fill-rule="evenodd" clip-rule="evenodd" d="M9 11V5H5V11H9ZM11 20V16C11 15.4477 10.5523 15 10 15H4C3.44772 15 3 15.4477 3 16V20C3 20.5523 3.44772 21 4 21H10C10.5523 21 11 20.5523 11 20ZM9 19V17H5V19H9ZM19 19V13H15V19H19ZM15 7H19V5H15V7ZM4 13C3.44772 13 3 12.5523 3 12V4C3 3.44772 3.44772 3 4 3H10C10.5523 3 11 3.44772 11 4V12C11 12.5523 10.5523 13 10 13H4ZM14 21C13.4477 21 13 20.5523 13 20V12C13 11.4477 13.4477 11 14 11H20C20.5523 11 21 11.4477 21 12V20C21 20.5523 20.5523 21 20 21H14ZM13 4C13 3.44772 13.4477 3 14 3H20C20.5523 3 21 3.44772 21 4V8C21 8.55228 20.5523 9 20 9H14C13.4477 9 13 8.55228 13 8V4Z" fill="#061027"/>
</svg>
