<svg width="24" height="24" viewBox="0 0 24 24" fill="none" xmlns="http://www.w3.org/2000/svg"><path d="M1.643 2.068 C 1.546 2.103,1.392 2.206,1.300 2.298 C 0.974 2.624,1.000 1.915,1.000 10.500 C 1.000 19.083,0.974 18.376,1.299 18.701 C 1.614 19.016,1.392 19.000,5.539 19.000 C 9.552 19.000,9.433 18.994,9.920 19.228 C 10.206 19.366,10.634 19.794,10.772 20.080 C 10.912 20.371,11.000 20.725,11.000 20.998 C 11.001 21.555,11.445 21.998,12.000 21.998 C 12.549 21.998,12.999 21.554,13.000 21.012 C 13.001 20.078,13.685 19.233,14.592 19.044 C 14.738 19.014,15.949 19.000,18.475 19.000 C 22.607 19.000,22.387 19.016,22.701 18.701 C 23.026 18.376,23.000 19.083,23.000 10.500 C 23.000 1.917,23.026 2.624,22.701 2.299 C 22.389 1.987,22.556 2.000,18.903 2.000 C 15.450 2.000,15.292 2.008,14.600 2.201 C 14.214 2.309,13.579 2.612,13.176 2.880 C 13.002 2.996,12.667 3.286,12.431 3.524 L 12.001 3.957 11.551 3.507 C 10.794 2.752,10.058 2.345,9.000 2.095 C 8.727 2.031,8.388 2.024,5.260 2.015 C 2.208 2.006,1.800 2.012,1.643 2.068 M8.592 4.063 C 9.704 4.291,10.560 5.094,10.909 6.236 C 10.972 6.442,10.978 6.903,10.990 11.990 C 10.996 15.032,10.987 17.520,10.969 17.520 C 10.951 17.520,10.919 17.503,10.898 17.482 C 10.832 17.416,10.274 17.199,9.940 17.109 C 9.627 17.026,9.545 17.023,6.310 17.010 L 3.000 16.997 3.000 10.498 L 3.000 4.000 5.642 4.000 C 7.893 4.000,8.329 4.009,8.592 4.063 M21.000 10.498 L 21.000 16.997 17.690 17.009 C 14.416 17.022,14.377 17.023,14.060 17.111 C 13.722 17.204,13.273 17.378,13.141 17.467 C 13.098 17.496,13.048 17.520,13.031 17.520 C 13.014 17.520,13.000 15.089,13.000 12.118 C 13.000 6.202,12.992 6.422,13.235 5.839 C 13.605 4.956,14.437 4.269,15.382 4.066 C 15.612 4.017,16.126 4.006,18.330 4.003 L 21.000 4.000 21.000 10.498 " fill="#061027" stroke="none" fill-rule="evenodd"></path></svg>