<svg width="24" height="24" viewBox="0 0 24 24" fill="none" xmlns="http://www.w3.org/2000/svg"><path d="M4.400 2.062 C 3.428 2.272,2.610 2.944,2.235 3.839 C 1.988 4.431,2.000 4.013,2.000 12.000 C 2.000 19.987,1.988 19.569,2.235 20.161 C 2.525 20.853,3.147 21.475,3.839 21.765 C 4.431 22.012,4.013 22.000,12.000 22.000 C 18.482 22.000,19.317 21.993,19.592 21.937 C 20.776 21.694,21.694 20.776,21.937 19.592 C 21.993 19.317,22.000 18.482,22.000 12.000 C 22.000 5.518,21.993 4.683,21.937 4.408 C 21.694 3.224,20.776 2.306,19.592 2.063 C 19.317 2.007,18.487 2.000,11.972 2.003 C 5.862 2.006,4.617 2.016,4.400 2.062 M19.340 4.066 C 19.593 4.153,19.847 4.407,19.934 4.660 C 19.991 4.828,20.000 5.068,20.000 6.427 L 20.000 8.000 12.000 8.000 L 4.000 8.000 4.000 6.427 C 4.000 4.637,4.006 4.592,4.300 4.298 C 4.616 3.982,3.975 4.007,11.983 4.003 C 18.550 4.000,19.162 4.006,19.340 4.066 M8.000 12.000 L 8.000 14.000 6.000 14.000 L 4.000 14.000 4.000 12.000 L 4.000 10.000 6.000 10.000 L 8.000 10.000 8.000 12.000 M14.000 12.000 L 14.000 14.000 12.000 14.000 L 10.000 14.000 10.000 12.000 L 10.000 10.000 12.000 10.000 L 14.000 10.000 14.000 12.000 M20.000 12.000 L 20.000 14.000 18.000 14.000 L 16.000 14.000 16.000 12.000 L 16.000 10.000 18.000 10.000 L 20.000 10.000 20.000 12.000 M8.000 18.000 L 8.000 20.000 6.427 20.000 C 4.638 20.000,4.591 19.994,4.299 19.701 C 4.006 19.409,4.000 19.362,4.000 17.573 L 4.000 16.000 6.000 16.000 L 8.000 16.000 8.000 18.000 M14.000 18.000 L 14.000 20.000 12.000 20.000 L 10.000 20.000 10.000 18.000 L 10.000 16.000 12.000 16.000 L 14.000 16.000 14.000 18.000 M20.000 17.573 C 20.000 19.362,19.994 19.409,19.701 19.701 C 19.409 19.994,19.362 20.000,17.573 20.000 L 16.000 20.000 16.000 18.000 L 16.000 16.000 18.000 16.000 L 20.000 16.000 20.000 17.573 " fill="#061027" stroke="none" fill-rule="evenodd"></path></svg>