<svg version="1.1" id="Capa_1" xmlns="http://www.w3.org/2000/svg" xmlns:xlink="http://www.w3.org/1999/xlink" x="0px" y="0px" viewBox="0 0 297 297" style="enable-background:new 0 0 297 297;" xml:space="preserve"><path d="M135.382 0.564 C 82.546 5.133,34.888 39.068,13.083 87.648 C -13.115 146.013,0.927 214.218,48.085 257.666 L 52.363 261.608 52.100 267.093 C 51.929 270.643,52.054 273.524,52.455 275.260 C 54.824 285.537,63.091 293.829,73.386 296.257 C 81.435 298.154,90.278 296.081,96.804 290.766 L 99.439 288.619 102.313 289.619 C 107.020 291.256,118.136 293.945,124.492 294.984 C 179.038 303.904,233.704 281.950,266.974 237.766 C 294.101 201.740,303.337 156.525,292.542 112.605 C 291.738 109.334,290.527 105.032,289.852 103.046 L 288.623 99.434 290.768 96.801 C 303.378 81.319,295.628 57.879,276.188 52.705 C 273.197 51.909,265.899 51.736,263.565 52.405 C 262.129 52.817,261.886 52.643,257.876 48.322 C 255.572 45.839,251.349 41.637,248.490 38.984 C 218.415 11.075,176.902 -3.026,135.382 0.564 M157.709 21.294 C 184.021 23.369,207.673 32.668,228.195 49.004 C 233.808 53.472,245.025 64.472,245.025 65.508 C 245.025 65.858,244.579 67.066,244.035 68.194 C 242.641 71.079,241.575 75.956,241.575 79.448 C 241.575 93.152,252.500 105.499,265.815 106.843 L 269.032 107.168 270.612 111.961 C 272.391 117.358,274.336 126.509,275.273 133.898 C 276.183 141.064,276.060 157.314,275.040 164.779 C 271.162 193.155,258.596 218.624,238.610 238.610 C 209.597 267.622,168.324 281.013,128.205 274.430 C 122.584 273.507,113.083 271.201,109.642 269.923 L 107.168 269.003 106.843 265.800 C 105.709 254.614,96.607 244.689,85.282 242.289 C 79.333 241.028,73.098 241.665,68.194 244.035 C 67.066 244.579,65.858 245.025,65.508 245.025 C 64.470 245.025,53.468 233.803,49.007 228.195 C 27.053 200.593,17.566 166.583,22.080 131.670 C 28.975 78.341,70.038 34.313,122.910 23.558 C 134.865 21.126,146.219 20.387,157.709 21.294 M105.465 53.211 C 98.825 55.361,93.196 60.044,89.699 66.330 C 87.014 71.157,85.701 77.980,86.508 82.912 L 86.913 85.388 83.432 89.251 C 58.915 116.465,53.520 154.627,69.563 187.357 C 88.829 226.666,134.578 245.911,175.953 232.114 C 206.868 221.804,229.205 196.118,235.215 163.965 C 236.677 156.143,236.779 141.856,235.428 134.145 C 228.542 94.828,197.181 65.245,157.801 60.918 C 151.777 60.256,145.089 60.250,139.403 60.902 L 135.009 61.405 132.429 58.965 C 125.661 52.564,114.695 50.224,105.465 53.211 M117.284 73.669 C 119.201 74.697,120.780 77.270,120.780 79.365 C 120.780 84.664,114.707 87.943,110.342 85.001 C 108.290 83.619,107.432 82.016,107.422 79.547 C 107.402 74.294,112.634 71.176,117.284 73.669 M272.796 73.885 C 276.559 76.392,277.066 80.710,273.991 84.066 C 272.419 85.781,272.156 85.882,269.280 85.882 C 266.404 85.882,266.141 85.781,264.569 84.066 C 263.654 83.067,262.757 81.462,262.576 80.499 C 261.896 76.872,265.456 72.765,269.280 72.765 C 270.359 72.765,271.806 73.226,272.796 73.885 M161.212 82.611 C 174.541 85.195,186.519 91.623,196.101 101.335 C 208.912 114.320,215.507 130.349,215.507 148.500 C 215.507 159.622,213.529 168.217,208.724 177.968 C 199.210 197.277,181.693 210.500,160.132 214.650 C 154.024 215.825,142.898 215.803,136.620 214.602 C 108.737 209.271,87.754 188.210,82.350 160.132 C 81.178 154.041,81.198 142.905,82.392 136.620 C 84.550 125.264,89.074 115.456,96.376 106.303 L 99.040 102.964 101.487 104.203 C 107.619 107.311,115.940 107.904,122.501 105.702 C 127.420 104.051,130.727 101.896,134.337 97.990 C 137.693 94.359,140.188 89.541,141.106 84.921 C 141.706 81.906,141.828 81.712,143.265 81.497 C 146.261 81.049,156.399 81.678,161.212 82.611 M139.343 113.357 C 132.956 115.076,127.974 118.010,122.981 122.991 C 119.176 126.787,118.154 128.173,116.215 132.165 C 113.274 138.218,112.365 142.074,112.365 148.500 C 112.365 154.926,113.274 158.782,116.215 164.835 C 118.151 168.821,119.182 170.221,122.981 174.019 C 126.779 177.818,128.179 178.849,132.165 180.785 C 138.218 183.726,142.074 184.635,148.500 184.635 C 154.926 184.635,158.782 183.726,164.835 180.785 C 168.821 178.849,170.221 177.818,174.019 174.019 C 177.818 170.221,178.849 168.821,180.785 164.835 C 183.726 158.782,184.635 154.926,184.635 148.500 C 184.635 142.074,183.726 138.218,180.785 132.165 C 178.849 128.179,177.818 126.779,174.019 122.981 C 170.221 119.182,168.821 118.151,164.835 116.215 C 162.249 114.958,158.670 113.578,156.883 113.147 C 152.341 112.054,143.807 112.156,139.343 113.357 M155.083 134.592 C 157.989 135.998,160.994 139.006,162.453 141.969 C 163.377 143.845,163.597 145.103,163.597 148.500 C 163.597 153.451,162.599 155.974,159.332 159.273 C 155.281 163.365,149.531 164.791,143.801 163.125 C 139.795 161.960,135.103 157.356,133.944 153.453 C 133.030 150.373,132.938 147.105,133.689 144.292 C 134.851 139.938,139.306 135.273,143.662 133.852 C 146.702 132.860,152.248 133.220,155.083 134.592 M81.815 263.029 C 82.691 263.402,83.964 264.311,84.645 265.049 C 85.678 266.168,85.882 266.880,85.882 269.358 C 85.882 272.144,85.771 272.428,84.066 273.991 C 81.711 276.149,79.355 276.609,76.877 275.395 C 71.577 272.797,71.496 265.849,76.735 263.217 C 78.812 262.173,79.727 262.139,81.815 263.029 " stroke="none" fill-rule="evenodd" fill="black"></path></svg>