<svg width="12" height="12" viewBox="0 0 12 12" fill="none" xmlns="http://www.w3.org/2000/svg"><path d="M3.785 1.530 C 3.287 1.639,2.941 2.138,3.017 2.640 C 3.083 3.075,3.425 3.417,3.860 3.483 C 4.392 3.563,4.901 3.182,4.983 2.640 C 5.060 2.133,4.712 1.637,4.205 1.529 C 4.041 1.495,3.949 1.495,3.785 1.530 M7.785 1.530 C 7.287 1.639,6.941 2.138,7.017 2.640 C 7.100 3.188,7.620 3.571,8.156 3.481 C 8.583 3.408,8.918 3.068,8.983 2.640 C 9.060 2.133,8.712 1.637,8.205 1.529 C 8.041 1.495,7.949 1.495,7.785 1.530 M3.767 5.028 C 3.329 5.135,3.000 5.551,3.000 6.000 C 3.000 6.540,3.460 7.000,4.000 7.000 C 4.261 7.000,4.509 6.895,4.702 6.702 C 5.100 6.304,5.100 5.696,4.702 5.298 C 4.450 5.047,4.103 4.947,3.767 5.028 M7.785 5.030 C 7.287 5.139,6.941 5.638,7.017 6.140 C 7.100 6.688,7.620 7.071,8.156 6.981 C 8.583 6.908,8.918 6.568,8.983 6.140 C 9.060 5.633,8.712 5.137,8.205 5.029 C 8.041 4.995,7.949 4.995,7.785 5.030 M3.785 8.530 C 3.287 8.639,2.941 9.138,3.017 9.640 C 3.100 10.188,3.620 10.571,4.156 10.481 C 4.583 10.408,4.918 10.068,4.983 9.640 C 5.060 9.133,4.712 8.637,4.205 8.529 C 4.041 8.495,3.949 8.495,3.785 8.530 M7.785 8.530 C 7.287 8.639,6.941 9.138,7.017 9.640 C 7.083 10.075,7.425 10.417,7.860 10.483 C 8.392 10.563,8.901 10.182,8.983 9.640 C 9.060 9.133,8.712 8.637,8.205 8.529 C 8.041 8.495,7.949 8.495,7.785 8.530 " fill="#555555" stroke="none" fill-rule="evenodd"></path></svg>