<svg viewBox="0 0 16 16" width="1em" height="1em" focusable="false" role="img" aria-label="info circle fill" xmlns="http://www.w3.org/2000/svg" fill="currentColor" class="bi-info-circle-fill mx-auto b-icon bi" data-v-41be6633=""><path d="M7.293 0.030 C 4.174 0.300,1.460 2.423,0.439 5.390 C -0.989 9.546,1.195 14.077,5.331 15.539 C 8.244 16.569,11.468 15.838,13.653 13.653 C 16.473 10.834,16.787 6.378,14.390 3.190 C 12.867 1.166,10.473 -0.019,7.947 0.004 C 7.734 0.006,7.440 0.018,7.293 0.030 M8.192 3.523 C 8.504 3.590,8.772 3.798,8.902 4.075 C 8.965 4.209,8.973 4.258,8.973 4.507 C 8.972 4.746,8.963 4.805,8.910 4.914 C 8.810 5.115,8.632 5.294,8.432 5.393 C 8.269 5.473,8.234 5.480,8.001 5.480 C 7.781 5.480,7.726 5.470,7.594 5.409 C 7.393 5.314,7.201 5.131,7.105 4.941 C 7.033 4.800,7.027 4.763,7.027 4.507 C 7.027 4.259,7.035 4.209,7.098 4.075 C 7.224 3.806,7.473 3.605,7.773 3.531 C 7.946 3.488,8.020 3.487,8.192 3.523 M8.923 6.633 C 8.915 6.659,8.686 7.728,8.414 9.009 C 8.088 10.547,7.920 11.393,7.920 11.498 C 7.920 11.640,7.929 11.666,8.001 11.739 C 8.081 11.819,8.086 11.820,8.307 11.808 C 8.496 11.798,8.560 11.782,8.720 11.702 L 8.910 11.608 8.892 11.716 C 8.846 11.989,8.820 12.034,8.626 12.180 C 8.304 12.423,7.914 12.557,7.465 12.579 C 6.994 12.602,6.741 12.490,6.596 12.195 C 6.525 12.050,6.520 12.020,6.522 11.720 C 6.524 11.412,6.539 11.331,6.915 9.581 C 7.131 8.581,7.307 7.704,7.307 7.632 C 7.307 7.532,7.293 7.490,7.247 7.447 C 7.178 7.384,6.978 7.319,6.767 7.293 C 6.559 7.267,6.558 7.266,6.599 7.072 C 6.618 6.979,6.641 6.897,6.649 6.889 C 6.661 6.876,8.706 6.604,8.888 6.590 C 8.923 6.588,8.933 6.600,8.923 6.633 " stroke="none" fill-rule="evenodd"></path></svg>
