<svg width="24" height="24" viewBox="0 0 24 24" fill="none" xmlns="http://www.w3.org/2000/svg"><path d="M3.643 3.069 C 3.546 3.103,3.392 3.206,3.300 3.298 C 2.982 3.616,3.000 3.336,3.000 8.000 C 3.000 12.663,2.982 12.384,3.299 12.701 C 3.610 13.013,3.456 13.000,7.000 13.000 C 10.544 13.000,10.390 13.013,10.701 12.701 C 11.018 12.384,11.000 12.663,11.000 8.000 C 11.000 3.337,11.018 3.616,10.701 3.299 C 10.389 2.987,10.547 3.000,6.983 3.003 C 4.226 3.006,3.797 3.014,3.643 3.069 M13.643 3.069 C 13.546 3.103,13.392 3.206,13.300 3.298 C 12.997 3.601,13.000 3.572,13.000 6.000 C 13.000 8.427,12.997 8.399,13.299 8.701 C 13.610 9.013,13.456 9.000,17.000 9.000 C 20.544 9.000,20.390 9.013,20.701 8.701 C 21.003 8.399,21.000 8.427,21.000 6.000 C 21.000 3.573,21.003 3.601,20.701 3.299 C 20.389 2.987,20.547 3.000,16.983 3.003 C 14.226 3.006,13.797 3.014,13.643 3.069 M9.000 8.000 L 9.000 11.000 7.000 11.000 L 5.000 11.000 5.000 8.000 L 5.000 5.000 7.000 5.000 L 9.000 5.000 9.000 8.000 M19.000 6.000 L 19.000 7.000 17.000 7.000 L 15.000 7.000 15.000 6.000 L 15.000 5.000 17.000 5.000 L 19.000 5.000 19.000 6.000 M13.643 11.069 C 13.546 11.103,13.392 11.206,13.300 11.298 C 12.982 11.616,13.000 11.336,13.000 16.000 C 13.000 20.663,12.982 20.384,13.299 20.701 C 13.610 21.013,13.456 21.000,17.000 21.000 C 20.544 21.000,20.390 21.013,20.701 20.701 C 21.018 20.384,21.000 20.663,21.000 16.000 C 21.000 11.337,21.018 11.616,20.701 11.299 C 20.389 10.987,20.547 11.000,16.983 11.003 C 14.226 11.006,13.797 11.014,13.643 11.069 M19.000 16.000 L 19.000 19.000 17.000 19.000 L 15.000 19.000 15.000 16.000 L 15.000 13.000 17.000 13.000 L 19.000 13.000 19.000 16.000 M3.643 15.069 C 3.546 15.103,3.392 15.206,3.300 15.298 C 2.997 15.601,3.000 15.572,3.000 18.000 C 3.000 20.427,2.997 20.399,3.299 20.701 C 3.610 21.013,3.456 21.000,7.000 21.000 C 10.544 21.000,10.390 21.013,10.701 20.701 C 11.003 20.399,11.000 20.427,11.000 18.000 C 11.000 15.573,11.003 15.601,10.701 15.299 C 10.389 14.987,10.547 15.000,6.983 15.003 C 4.226 15.006,3.797 15.014,3.643 15.069 M9.000 18.000 L 9.000 19.000 7.000 19.000 L 5.000 19.000 5.000 18.000 L 5.000 17.000 7.000 17.000 L 9.000 17.000 9.000 18.000 " fill="#061027" stroke="none" fill-rule="evenodd"></path></svg>