<svg width="16" height="17" viewBox="0 0 16 17" fill="none" xmlns="http://www.w3.org/2000/svg"><path d="M6.397 1.555 C 6.231 1.602,6.018 1.743,5.906 1.879 C 5.719 2.108,5.717 2.114,5.532 3.794 C 5.437 4.648,5.353 5.385,5.346 5.432 L 5.331 5.518 3.872 5.526 L 2.413 5.533 2.260 5.605 C 2.065 5.696,1.872 5.890,1.772 6.094 C 1.702 6.236,1.693 6.280,1.693 6.507 C 1.693 6.733,1.702 6.777,1.772 6.920 C 1.872 7.123,2.065 7.317,2.260 7.408 L 2.413 7.480 3.767 7.488 L 5.120 7.496 5.104 7.634 C 5.095 7.711,5.044 8.163,4.990 8.640 L 4.893 9.507 3.653 9.520 L 2.413 9.533 2.260 9.605 C 2.065 9.696,1.872 9.890,1.772 10.094 C 1.702 10.236,1.693 10.280,1.693 10.507 C 1.693 10.733,1.702 10.777,1.772 10.920 C 1.872 11.123,2.065 11.317,2.260 11.408 L 2.413 11.480 3.540 11.488 C 4.436 11.494,4.667 11.503,4.667 11.530 C 4.667 11.549,4.594 12.212,4.505 13.002 C 4.394 13.984,4.348 14.494,4.357 14.609 C 4.386 14.943,4.599 15.244,4.920 15.402 C 5.063 15.472,5.107 15.480,5.333 15.480 C 5.552 15.479,5.608 15.470,5.740 15.408 C 5.933 15.318,6.144 15.108,6.230 14.921 C 6.289 14.791,6.315 14.610,6.468 13.221 C 6.563 12.366,6.647 11.628,6.655 11.580 L 6.669 11.493 7.668 11.493 C 8.483 11.493,8.667 11.500,8.667 11.529 C 8.667 11.549,8.594 12.212,8.505 13.002 C 8.394 13.984,8.348 14.494,8.357 14.609 C 8.386 14.943,8.599 15.244,8.920 15.402 C 9.063 15.472,9.107 15.480,9.333 15.480 C 9.552 15.479,9.608 15.470,9.740 15.408 C 9.933 15.318,10.144 15.108,10.230 14.921 C 10.289 14.791,10.315 14.610,10.468 13.221 C 10.563 12.366,10.647 11.628,10.654 11.581 L 10.669 11.495 12.128 11.488 L 13.587 11.480 13.740 11.408 C 13.935 11.317,14.144 11.108,14.235 10.913 C 14.296 10.781,14.306 10.726,14.306 10.507 C 14.306 10.288,14.296 10.233,14.235 10.100 C 14.144 9.905,13.935 9.697,13.740 9.605 L 13.587 9.533 12.233 9.526 L 10.880 9.518 10.896 9.379 C 10.905 9.302,10.956 8.850,11.010 8.373 L 11.107 7.507 12.347 7.493 L 13.587 7.480 13.740 7.408 C 13.935 7.317,14.144 7.108,14.235 6.913 C 14.296 6.781,14.306 6.726,14.306 6.507 C 14.306 6.288,14.296 6.233,14.235 6.100 C 14.144 5.905,13.935 5.697,13.740 5.605 L 13.587 5.533 12.460 5.525 C 11.564 5.519,11.333 5.510,11.333 5.483 C 11.333 5.464,11.406 4.802,11.495 4.011 C 11.670 2.453,11.674 2.336,11.562 2.091 C 11.477 1.905,11.266 1.695,11.073 1.605 C 10.941 1.544,10.886 1.534,10.667 1.534 C 10.448 1.534,10.393 1.544,10.260 1.605 C 10.067 1.696,9.856 1.905,9.770 2.093 C 9.711 2.222,9.685 2.403,9.532 3.792 C 9.437 4.647,9.353 5.386,9.345 5.433 L 9.331 5.520 8.332 5.520 C 7.517 5.520,7.333 5.513,7.333 5.484 C 7.333 5.465,7.406 4.802,7.495 4.011 C 7.594 3.128,7.652 2.510,7.645 2.410 C 7.622 2.083,7.386 1.750,7.078 1.609 C 6.899 1.527,6.584 1.502,6.397 1.555 M9.104 7.633 C 9.095 7.710,9.044 8.163,8.990 8.640 L 8.893 9.507 7.884 9.514 L 6.875 9.521 6.891 9.420 C 6.899 9.365,6.949 8.924,7.001 8.440 C 7.054 7.956,7.101 7.545,7.107 7.527 C 7.116 7.501,7.342 7.493,8.119 7.493 L 9.120 7.493 9.104 7.633 " stroke="none" fill-rule="evenodd" fill="black"></path></svg>