<svg viewBox="0 0 16 16" width="1em" height="1em" focusable="false" role="img" aria-label="pencil" xmlns="http://www.w3.org/2000/svg" fill="currentColor" class="bi-pencil mx-auto b-icon bi" data-v-41be6633=""><path d="M12.293 0.042 C 12.232 0.068,10.473 1.810,7.132 5.154 L 2.063 10.227 1.032 12.814 C 0.464 14.237,0.000 15.436,0.000 15.478 C -0.000 15.759,0.238 16.000,0.517 16.000 C 0.562 16.000,1.749 15.541,3.186 14.968 L 5.773 13.936 10.807 8.908 C 13.576 6.143,15.872 3.835,15.911 3.781 C 15.993 3.662,16.019 3.485,15.974 3.343 C 15.947 3.260,15.636 2.934,14.377 1.671 C 13.316 0.606,12.779 0.085,12.707 0.051 C 12.579 -0.009,12.420 -0.012,12.293 0.042 M13.653 2.360 L 14.786 3.493 14.140 4.140 L 13.493 4.787 12.353 3.647 L 11.214 2.507 11.853 1.867 C 12.205 1.515,12.499 1.227,12.507 1.227 C 12.514 1.227,13.030 1.737,13.653 2.360 M11.653 4.360 L 12.787 5.493 9.533 8.747 L 6.280 12.000 6.140 12.000 L 6.000 12.000 5.999 11.700 C 5.999 11.348,5.957 11.225,5.798 11.104 C 5.701 11.029,5.685 11.026,5.356 11.018 L 5.013 11.009 5.013 10.788 C 5.013 10.353,4.930 10.151,4.710 10.051 C 4.624 10.012,4.535 10.001,4.300 10.001 L 4.000 10.000 4.000 9.860 L 4.000 9.720 7.247 6.473 C 9.032 4.688,10.499 3.227,10.507 3.227 C 10.514 3.227,11.030 3.737,11.653 4.360 M3.289 10.951 C 3.347 10.981,3.471 10.999,3.687 11.008 L 4.000 11.021 4.000 11.309 C 4.000 11.640,4.020 11.709,4.154 11.847 C 4.277 11.973,4.373 12.000,4.709 12.000 L 4.979 12.000 4.993 12.316 C 5.010 12.674,5.036 12.747,5.199 12.886 L 5.306 12.978 5.246 13.033 C 5.187 13.088,1.444 14.600,1.422 14.578 C 1.400 14.556,2.912 10.813,2.967 10.754 L 3.022 10.694 3.114 10.801 C 3.164 10.860,3.243 10.928,3.289 10.951 " stroke="none" fill-rule="evenodd"></path></svg>