<svg width="16" height="16" viewBox="0 0 16 16" xmlns="http://www.w3.org/2000/svg"><path d="M2.429 3.379 C 2.194 3.462,2.000 3.743,2.000 4.000 C 2.000 4.161,2.080 4.348,2.199 4.467 C 2.407 4.675,2.304 4.667,4.667 4.667 C 7.030 4.667,6.926 4.675,7.134 4.467 C 7.395 4.207,7.395 3.793,7.134 3.533 C 6.926 3.325,7.032 3.333,4.655 3.335 C 2.817 3.337,2.532 3.343,2.429 3.379 M2.429 7.379 C 2.194 7.462,2.000 7.743,2.000 8.000 C 2.000 8.161,2.080 8.348,2.199 8.467 C 2.416 8.684,1.904 8.667,8.000 8.667 C 14.096 8.667,13.584 8.684,13.801 8.467 C 14.062 8.207,14.062 7.793,13.801 7.533 C 13.584 7.316,14.098 7.333,7.989 7.335 C 3.131 7.337,2.534 7.342,2.429 7.379 M2.429 11.379 C 2.194 11.462,2.000 11.743,2.000 12.000 C 2.000 12.161,2.080 12.348,2.199 12.467 C 2.413 12.681,2.145 12.667,6.000 12.667 C 9.855 12.667,9.587 12.681,9.801 12.467 C 10.062 12.207,10.062 11.793,9.801 11.533 C 9.587 11.319,9.857 11.333,5.989 11.335 C 2.943 11.337,2.533 11.342,2.429 11.379 " stroke="none" fill-rule="evenodd" fill="black"></path></svg>