<svg width="16" height="17" viewBox="0 0 16 17" fill="none" xmlns="http://www.w3.org/2000/svg"><path d="M2.355 2.236 C 2.089 2.328,1.876 2.524,1.754 2.789 C 1.694 2.919,1.693 2.927,1.693 4.173 L 1.693 5.427 1.765 5.580 C 1.857 5.775,2.065 5.984,2.260 6.075 C 2.393 6.137,2.447 6.146,2.667 6.146 C 2.891 6.145,2.938 6.136,3.079 6.068 C 3.282 5.969,3.462 5.790,3.562 5.586 L 3.640 5.427 3.649 4.793 L 3.658 4.160 5.335 4.160 L 7.013 4.160 7.013 8.505 L 7.013 12.849 6.380 12.858 L 5.747 12.867 5.587 12.945 C 5.384 13.045,5.190 13.239,5.099 13.434 C 5.037 13.566,5.027 13.621,5.027 13.840 C 5.027 14.059,5.037 14.114,5.099 14.246 C 5.190 14.442,5.398 14.650,5.594 14.742 L 5.747 14.813 8.001 14.813 L 10.254 14.813 10.432 14.726 C 10.639 14.624,10.801 14.457,10.903 14.240 C 10.963 14.114,10.973 14.057,10.973 13.840 C 10.973 13.621,10.963 13.566,10.901 13.434 C 10.810 13.239,10.616 13.045,10.413 12.945 L 10.253 12.867 9.620 12.858 L 8.987 12.849 8.987 8.505 L 8.987 4.160 10.665 4.160 L 12.342 4.160 12.351 4.793 C 12.360 5.416,12.361 5.429,12.432 5.580 C 12.523 5.775,12.717 5.968,12.920 6.068 C 13.064 6.139,13.106 6.147,13.333 6.146 C 13.558 6.145,13.605 6.136,13.746 6.068 C 13.949 5.969,14.143 5.775,14.235 5.580 L 14.307 5.427 14.307 4.173 L 14.307 2.920 14.237 2.773 C 14.134 2.556,13.972 2.389,13.766 2.288 L 13.588 2.200 8.041 2.194 C 2.757 2.188,2.487 2.190,2.355 2.236 " stroke="none" fill-rule="evenodd" fill="black"></path></svg>