<svg width="14" height="14" viewBox="0 0 14 14" fill="none" xmlns="http://www.w3.org/2000/svg"><path d="M3.708 3.701 C 0.439 6.969,0.000 7.417,0.000 7.478 C 0.000 7.539,0.343 7.890,2.863 10.412 C 4.438 11.987,5.754 13.285,5.786 13.296 C 5.819 13.308,5.866 13.309,5.892 13.299 C 5.917 13.289,7.597 11.621,9.624 9.593 L 13.310 5.905 13.306 5.799 C 13.295 5.558,12.856 0.982,12.833 0.871 C 12.802 0.723,12.667 0.559,12.532 0.505 C 12.449 0.472,11.437 0.371,7.575 0.008 L 7.415 -0.007 3.708 3.701 M9.868 2.751 C 10.151 2.839,10.346 3.010,10.484 3.290 C 10.554 3.432,10.558 3.456,10.558 3.699 C 10.558 3.951,10.556 3.962,10.471 4.135 C 10.100 4.885,9.057 4.885,8.686 4.135 C 8.601 3.962,8.598 3.951,8.598 3.699 C 8.598 3.456,8.603 3.432,8.673 3.290 C 8.766 3.099,8.879 2.967,9.030 2.870 C 9.278 2.711,9.594 2.666,9.868 2.751 " fill="#99A6B7" stroke="none" fill-rule="evenodd"></path></svg>