<svg width="16" height="17" viewBox="0 0 16 17" fill="none" xmlns="http://www.w3.org/2000/svg"><path d="M5.021 0.901 C 4.752 0.998,4.539 1.195,4.422 1.455 C 4.377 1.557,4.361 1.654,4.352 1.887 L 4.340 2.187 3.733 2.187 C 3.035 2.187,2.808 2.218,2.453 2.365 C 1.880 2.601,1.428 3.054,1.191 3.627 C 1.003 4.083,1.013 3.760,1.013 9.173 C 1.013 14.586,1.003 14.264,1.191 14.720 C 1.429 15.295,1.879 15.744,2.458 15.984 C 2.908 16.170,2.593 16.160,8.000 16.160 C 13.398 16.160,13.085 16.170,13.539 15.987 C 14.108 15.757,14.584 15.282,14.813 14.712 C 14.996 14.258,14.987 14.571,14.987 9.173 C 14.987 3.760,14.997 4.083,14.809 3.627 C 14.571 3.052,14.122 2.602,13.547 2.365 C 13.192 2.218,12.965 2.187,12.267 2.187 L 11.660 2.187 11.648 1.887 C 11.639 1.635,11.626 1.562,11.567 1.434 C 11.478 1.239,11.269 1.030,11.073 0.938 C 10.940 0.876,10.887 0.867,10.667 0.867 C 10.449 0.868,10.392 0.878,10.260 0.939 C 10.064 1.030,9.856 1.239,9.767 1.434 C 9.708 1.562,9.695 1.635,9.685 1.887 L 9.673 2.187 8.000 2.187 L 6.326 2.187 6.315 1.887 C 6.307 1.633,6.295 1.564,6.236 1.440 C 6.069 1.084,5.771 0.883,5.382 0.863 C 5.211 0.854,5.128 0.863,5.021 0.901 M4.352 4.460 C 4.362 4.720,4.374 4.781,4.440 4.919 C 4.537 5.122,4.731 5.317,4.927 5.407 C 5.057 5.467,5.118 5.477,5.333 5.479 C 5.561 5.480,5.603 5.472,5.746 5.402 C 5.951 5.301,6.144 5.107,6.233 4.913 C 6.292 4.784,6.305 4.712,6.315 4.460 L 6.327 4.160 8.000 4.160 L 9.673 4.160 9.685 4.460 C 9.695 4.712,9.708 4.784,9.767 4.913 C 9.856 5.107,10.049 5.301,10.254 5.402 C 10.397 5.472,10.439 5.480,10.667 5.479 C 10.882 5.477,10.943 5.467,11.073 5.407 C 11.270 5.316,11.478 5.108,11.566 4.913 C 11.623 4.786,11.637 4.708,11.647 4.460 L 11.660 4.160 12.197 4.160 C 13.054 4.160,13.013 4.102,13.013 5.313 L 13.013 6.187 8.000 6.187 L 2.987 6.187 2.987 5.313 C 2.987 4.102,2.946 4.160,3.803 4.160 L 4.340 4.160 4.352 4.460 M13.013 11.033 C 13.013 14.246,13.026 14.041,12.827 14.140 C 12.739 14.184,12.453 14.187,8.000 14.187 C 3.547 14.187,3.261 14.184,3.173 14.140 C 2.974 14.041,2.987 14.246,2.987 11.033 L 2.987 8.160 8.000 8.160 L 13.013 8.160 13.013 11.033 " stroke="none" fill-rule="evenodd" fill="black"></path></svg>