<?xml version="1.0" encoding="iso-8859-1"?>
<!-- Generator: Adobe Illustrator 18.0.0, SVG Export Plug-In . SVG Version: 6.00 Build 0)  -->
<!DOCTYPE svg PUBLIC "-//W3C//DTD SVG 1.1//EN" "http://www.w3.org/Graphics/SVG/1.1/DTD/svg11.dtd">
<svg version="1.1" id="Capa_1" xmlns="http://www.w3.org/2000/svg" xmlns:xlink="http://www.w3.org/1999/xlink" x="0px" y="0px"
	 viewBox="0 0 297 297" style="enable-background:new 0 0 297 297;" xml:space="preserve">
<g>
	<path d="M148.5,112.159c-20.038,0-36.341,16.303-36.341,36.341s16.303,36.341,36.341,36.341s36.341-16.303,36.341-36.341
		S168.538,112.159,148.5,112.159z M148.5,163.925c-8.505,0-15.425-6.92-15.425-15.425s6.92-15.426,15.425-15.426
		s15.425,6.921,15.425,15.426S157.005,163.925,148.5,163.925z"/>
	<path d="M148.5,60.394c-4.593,0-9.104,0.355-13.509,1.035c-5.085-5.909-12.611-9.663-21.002-9.663
		c-15.281,0-27.713,12.432-27.713,27.713c0,2.085,0.239,4.111,0.677,6.066c-16.372,16.002-26.56,38.305-26.56,62.955
		c0,48.582,39.523,88.106,88.106,88.106s88.106-39.524,88.106-88.106S197.083,60.394,148.5,60.394z M113.989,72.682
		c3.748,0,6.798,3.049,6.798,6.797c0,3.748-3.05,6.798-6.798,6.798c-3.748,0-6.797-3.05-6.797-6.798
		C107.192,75.73,110.241,72.682,113.989,72.682z M148.5,215.691c-37.05,0-67.191-30.143-67.191-67.191
		c0-17.587,6.802-33.607,17.904-45.594c4.281,2.71,9.347,4.285,14.776,4.285c14.544,0,26.499-11.264,27.619-25.525
		c2.266-0.234,4.564-0.357,6.892-0.357c37.05,0,67.191,30.142,67.191,67.191C215.691,185.549,185.55,215.691,148.5,215.691z"/>
	<path d="M297,79.479c0-15.281-12.432-27.713-27.713-27.713c-2.552,0-5.021,0.354-7.368,1.003C234.657,20.521,193.935,0,148.5,0
		C66.617,0,0,66.617,0,148.5c0,45.434,20.521,86.157,52.768,113.418c-0.649,2.349-1.002,4.818-1.002,7.369
		c0,15.281,12.433,27.713,27.713,27.713c7.77,0,14.798-3.218,19.834-8.386C114.715,294.038,131.268,297,148.5,297
		c81.883,0,148.5-66.617,148.5-148.5c0-17.234-2.961-33.785-8.386-49.187C293.782,94.277,297,87.248,297,79.479z M276.085,79.479
		c0,3.748-3.05,6.798-6.798,6.798c-3.748,0-6.798-3.05-6.798-6.798c0-3.748,3.05-6.797,6.798-6.797
		C273.035,72.682,276.085,75.73,276.085,79.479z M79.479,276.084c-3.748,0-6.797-3.049-6.797-6.797c0-3.748,3.049-6.798,6.797-6.798
		c3.748,0,6.798,3.05,6.798,6.798C86.276,273.035,83.227,276.084,79.479,276.084z M148.5,276.084
		c-14.453,0-28.347-2.425-41.311-6.875c-0.042-15.245-12.455-27.635-27.711-27.635c-5.077,0-9.837,1.379-13.934,3.772
		c-27.3-23.417-44.63-58.143-44.63-96.847c0-70.351,57.234-127.584,127.585-127.584c38.704,0,73.43,17.328,96.847,44.629
		c-2.395,4.098-3.772,8.856-3.772,13.934c0,15.256,12.391,27.67,27.636,27.711c4.449,12.963,6.875,26.857,6.875,41.311
		C276.085,218.851,218.851,276.084,148.5,276.084z"/>
</g>
<g>
</g>
<g>
</g>
<g>
</g>
<g>
</g>
<g>
</g>
<g>
</g>
<g>
</g>
<g>
</g>
<g>
</g>
<g>
</g>
<g>
</g>
<g>
</g>
<g>
</g>
<g>
</g>
<g>
</g>
</svg>
