  <svg
    width="16"
    height="16"
    viewBox="0 0 16 16"
    xmlns="http://www.w3.org/2000/svg"
  >
    <path
      fill-rule="evenodd"
      clip-rule="evenodd"
      d="M10 12.0002C10 12.3684 9.70152 12.6668 9.33333 12.6668L2.66667 12.6668C2.29848 12.6668 2 12.3684 2 12.0002C2 11.632 2.29848 11.3335 2.66667 11.3335L9.33333 11.3335C9.70152 11.3335 10 11.632 10 12.0002Z"
    />
    <path
      fill-rule="evenodd"
      clip-rule="evenodd"
      d="M14 8.00016C14 8.36835 13.7015 8.66683 13.3333 8.66683L2.66667 8.66683C2.29848 8.66683 2 8.36835 2 8.00016C2 7.63197 2.29848 7.3335 2.66667 7.3335L13.3333 7.3335C13.7015 7.3335 14 7.63197 14 8.00016Z"
    />
    <path
      fill-rule="evenodd"
      clip-rule="evenodd"
      d="M7.33325 4.00016C7.33325 4.36835 7.03478 4.66683 6.66659 4.66683L2.66658 4.66683C2.2984 4.66683 1.99992 4.36835 1.99992 4.00016C1.99992 3.63197 2.2984 3.3335 2.66658 3.3335L6.66659 3.3335C7.03478 3.3335 7.33325 3.63197 7.33325 4.00016Z"
    />
  </svg>
