<svg width="14" height="14" viewBox="0 0 14 14" fill="none" xmlns="http://www.w3.org/2000/svg">
<path d="M13.3129 5.825L12.8504 0.940625C12.8269 0.6875 12.6254 0.4875 12.3723 0.4625L7.48788 0H7.48163C7.43163 0 7.39257 0.015625 7.36288 0.0453125L0.0456944 7.3625C0.0312094 7.37696 0.0197176 7.39413 0.0118767 7.41303C0.00403585 7.43193 0 7.45219 0 7.47266C0 7.49312 0.00403585 7.51338 0.0118767 7.53228C0.0197176 7.55119 0.0312094 7.56836 0.0456944 7.58281L5.73007 13.2672C5.75976 13.2969 5.79882 13.3125 5.84101 13.3125C5.88319 13.3125 5.92226 13.2969 5.95194 13.2672L13.2691 5.95C13.3004 5.91719 13.316 5.87187 13.3129 5.825ZM9.57851 4.70312C9.02694 4.70312 8.57851 4.25469 8.57851 3.70312C8.57851 3.15156 9.02694 2.70312 9.57851 2.70312C10.1301 2.70312 10.5785 3.15156 10.5785 3.70312C10.5785 4.25469 10.1301 4.70312 9.57851 4.70312Z" fill="#99A6B7"/>
</svg>
