<svg xmlns="http://www.w3.org/2000/svg" xmlns:xlink="http://www.w3.org/1999/xlink" width="0" height="0" style="display:none;"><symbol viewBox="0 0 24 24" id="icon-calcicon"><path d="M3.643 2.069 C 3.546 2.103,3.392 2.206,3.300 2.298 C 2.984 2.613,3.000 2.395,3.000 6.500 C 3.000 10.604,2.985 10.387,3.299 10.701 C 3.690 11.092,4.310 11.092,4.701 10.701 C 5.015 10.387,5.000 10.604,5.000 6.500 C 5.000 2.396,5.015 2.613,4.701 2.299 C 4.424 2.021,4.024 1.934,3.643 2.069 M11.643 2.069 C 11.546 2.103,11.392 2.206,11.300 2.298 C 10.998 2.600,11.000 2.580,11.000 4.927 L 11.000 7.000 9.927 7.000 C 8.692 7.000,8.577 7.021,8.299 7.299 C 7.908 7.690,7.908 8.310,8.299 8.701 C 8.610 9.013,8.456 9.000,12.000 9.000 C 15.544 9.000,15.390 9.013,15.701 8.701 C 16.092 8.310,16.092 7.690,15.701 7.299 C 15.423 7.021,15.308 7.000,14.073 7.000 L 13.000 7.000 13.000 4.927 C 13.000 2.581,13.002 2.600,12.701 2.299 C 12.424 2.021,12.024 1.934,11.643 2.069 M19.643 2.069 C 19.546 2.103,19.392 2.206,19.300 2.298 C 18.980 2.618,19.000 2.276,19.000 7.500 C 19.000 12.723,18.980 12.383,19.299 12.701 C 19.690 13.092,20.310 13.092,20.701 12.701 C 21.020 12.383,21.000 12.723,21.000 7.500 C 21.000 2.277,21.020 2.617,20.701 2.299 C 20.424 2.021,20.024 1.934,19.643 2.069 M11.643 11.069 C 11.546 11.103,11.392 11.206,11.300 11.298 C 10.980 11.618,11.000 11.276,11.000 16.500 C 11.000 21.723,10.980 21.383,11.299 21.701 C 11.690 22.092,12.310 22.092,12.701 21.701 C 13.020 21.383,13.000 21.723,13.000 16.500 C 13.000 11.277,13.020 11.617,12.701 11.299 C 12.424 11.021,12.024 10.934,11.643 11.069 M0.643 13.069 C 0.291 13.193,-0.000 13.614,0.000 14.000 C 0.000 14.396,0.291 14.808,0.660 14.934 C 0.822 14.989,1.033 15.000,1.927 15.000 L 3.000 15.000 3.000 18.073 C 3.000 21.536,2.988 21.390,3.299 21.701 C 3.690 22.092,4.310 22.092,4.701 21.701 C 5.012 21.390,5.000 21.536,5.000 18.073 L 5.000 15.000 6.073 15.000 C 7.308 15.000,7.423 14.979,7.701 14.701 C 8.092 14.310,8.092 13.690,7.701 13.299 C 7.389 12.987,7.547 13.000,3.983 13.003 C 1.226 13.006,0.797 13.014,0.643 13.069 M16.643 15.069 C 16.291 15.193,16.000 15.614,16.000 16.000 C 16.000 16.396,16.291 16.808,16.660 16.934 C 16.822 16.989,17.033 17.000,17.927 17.000 L 19.000 17.000 19.000 19.073 C 19.000 21.419,18.998 21.400,19.299 21.701 C 19.690 22.092,20.310 22.092,20.701 21.701 C 21.002 21.400,21.000 21.419,21.000 19.073 L 21.000 17.000 22.073 17.000 C 23.308 17.000,23.423 16.979,23.701 16.701 C 24.092 16.310,24.092 15.690,23.701 15.299 C 23.389 14.987,23.547 15.000,19.983 15.003 C 17.226 15.006,16.797 15.014,16.643 15.069 " fill="#061027" stroke="none" fill-rule="evenodd"></path></symbol><symbol viewBox="0 0 24 24" id="icon-dataseticon"><path d="M4.400 2.062 C 3.428 2.272,2.610 2.944,2.235 3.839 C 1.988 4.431,2.000 4.013,2.000 12.000 C 2.000 19.987,1.988 19.569,2.235 20.161 C 2.525 20.853,3.147 21.475,3.839 21.765 C 4.431 22.012,4.013 22.000,12.000 22.000 C 18.482 22.000,19.317 21.993,19.592 21.937 C 20.776 21.694,21.694 20.776,21.937 19.592 C 21.993 19.317,22.000 18.482,22.000 12.000 C 22.000 5.518,21.993 4.683,21.937 4.408 C 21.694 3.224,20.776 2.306,19.592 2.063 C 19.317 2.007,18.487 2.000,11.972 2.003 C 5.862 2.006,4.617 2.016,4.400 2.062 M19.340 4.066 C 19.593 4.153,19.847 4.407,19.934 4.660 C 19.991 4.828,20.000 5.068,20.000 6.427 L 20.000 8.000 12.000 8.000 L 4.000 8.000 4.000 6.427 C 4.000 4.637,4.006 4.592,4.300 4.298 C 4.616 3.982,3.975 4.007,11.983 4.003 C 18.550 4.000,19.162 4.006,19.340 4.066 M8.000 12.000 L 8.000 14.000 6.000 14.000 L 4.000 14.000 4.000 12.000 L 4.000 10.000 6.000 10.000 L 8.000 10.000 8.000 12.000 M14.000 12.000 L 14.000 14.000 12.000 14.000 L 10.000 14.000 10.000 12.000 L 10.000 10.000 12.000 10.000 L 14.000 10.000 14.000 12.000 M20.000 12.000 L 20.000 14.000 18.000 14.000 L 16.000 14.000 16.000 12.000 L 16.000 10.000 18.000 10.000 L 20.000 10.000 20.000 12.000 M8.000 18.000 L 8.000 20.000 6.427 20.000 C 4.638 20.000,4.591 19.994,4.299 19.701 C 4.006 19.409,4.000 19.362,4.000 17.573 L 4.000 16.000 6.000 16.000 L 8.000 16.000 8.000 18.000 M14.000 18.000 L 14.000 20.000 12.000 20.000 L 10.000 20.000 10.000 18.000 L 10.000 16.000 12.000 16.000 L 14.000 16.000 14.000 18.000 M20.000 17.573 C 20.000 19.362,19.994 19.409,19.701 19.701 C 19.409 19.994,19.362 20.000,17.573 20.000 L 16.000 20.000 16.000 18.000 L 16.000 16.000 18.000 16.000 L 20.000 16.000 20.000 17.573 " fill="#061027" stroke="none" fill-rule="evenodd"></path></symbol><symbol viewBox="0 0 297 297" id="icon-detection"><path d="M135.382 0.564 C 82.546 5.133,34.888 39.068,13.083 87.648 C -13.115 146.013,0.927 214.218,48.085 257.666 L 52.363 261.608 52.100 267.093 C 51.929 270.643,52.054 273.524,52.455 275.260 C 54.824 285.537,63.091 293.829,73.386 296.257 C 81.435 298.154,90.278 296.081,96.804 290.766 L 99.439 288.619 102.313 289.619 C 107.020 291.256,118.136 293.945,124.492 294.984 C 179.038 303.904,233.704 281.950,266.974 237.766 C 294.101 201.740,303.337 156.525,292.542 112.605 C 291.738 109.334,290.527 105.032,289.852 103.046 L 288.623 99.434 290.768 96.801 C 303.378 81.319,295.628 57.879,276.188 52.705 C 273.197 51.909,265.899 51.736,263.565 52.405 C 262.129 52.817,261.886 52.643,257.876 48.322 C 255.572 45.839,251.349 41.637,248.490 38.984 C 218.415 11.075,176.902 -3.026,135.382 0.564 M157.709 21.294 C 184.021 23.369,207.673 32.668,228.195 49.004 C 233.808 53.472,245.025 64.472,245.025 65.508 C 245.025 65.858,244.579 67.066,244.035 68.194 C 242.641 71.079,241.575 75.956,241.575 79.448 C 241.575 93.152,252.500 105.499,265.815 106.843 L 269.032 107.168 270.612 111.961 C 272.391 117.358,274.336 126.509,275.273 133.898 C 276.183 141.064,276.060 157.314,275.040 164.779 C 271.162 193.155,258.596 218.624,238.610 238.610 C 209.597 267.622,168.324 281.013,128.205 274.430 C 122.584 273.507,113.083 271.201,109.642 269.923 L 107.168 269.003 106.843 265.800 C 105.709 254.614,96.607 244.689,85.282 242.289 C 79.333 241.028,73.098 241.665,68.194 244.035 C 67.066 244.579,65.858 245.025,65.508 245.025 C 64.470 245.025,53.468 233.803,49.007 228.195 C 27.053 200.593,17.566 166.583,22.080 131.670 C 28.975 78.341,70.038 34.313,122.910 23.558 C 134.865 21.126,146.219 20.387,157.709 21.294 M105.465 53.211 C 98.825 55.361,93.196 60.044,89.699 66.330 C 87.014 71.157,85.701 77.980,86.508 82.912 L 86.913 85.388 83.432 89.251 C 58.915 116.465,53.520 154.627,69.563 187.357 C 88.829 226.666,134.578 245.911,175.953 232.114 C 206.868 221.804,229.205 196.118,235.215 163.965 C 236.677 156.143,236.779 141.856,235.428 134.145 C 228.542 94.828,197.181 65.245,157.801 60.918 C 151.777 60.256,145.089 60.250,139.403 60.902 L 135.009 61.405 132.429 58.965 C 125.661 52.564,114.695 50.224,105.465 53.211 M117.284 73.669 C 119.201 74.697,120.780 77.270,120.780 79.365 C 120.780 84.664,114.707 87.943,110.342 85.001 C 108.290 83.619,107.432 82.016,107.422 79.547 C 107.402 74.294,112.634 71.176,117.284 73.669 M272.796 73.885 C 276.559 76.392,277.066 80.710,273.991 84.066 C 272.419 85.781,272.156 85.882,269.280 85.882 C 266.404 85.882,266.141 85.781,264.569 84.066 C 263.654 83.067,262.757 81.462,262.576 80.499 C 261.896 76.872,265.456 72.765,269.280 72.765 C 270.359 72.765,271.806 73.226,272.796 73.885 M161.212 82.611 C 174.541 85.195,186.519 91.623,196.101 101.335 C 208.912 114.320,215.507 130.349,215.507 148.500 C 215.507 159.622,213.529 168.217,208.724 177.968 C 199.210 197.277,181.693 210.500,160.132 214.650 C 154.024 215.825,142.898 215.803,136.620 214.602 C 108.737 209.271,87.754 188.210,82.350 160.132 C 81.178 154.041,81.198 142.905,82.392 136.620 C 84.550 125.264,89.074 115.456,96.376 106.303 L 99.040 102.964 101.487 104.203 C 107.619 107.311,115.940 107.904,122.501 105.702 C 127.420 104.051,130.727 101.896,134.337 97.990 C 137.693 94.359,140.188 89.541,141.106 84.921 C 141.706 81.906,141.828 81.712,143.265 81.497 C 146.261 81.049,156.399 81.678,161.212 82.611 M139.343 113.357 C 132.956 115.076,127.974 118.010,122.981 122.991 C 119.176 126.787,118.154 128.173,116.215 132.165 C 113.274 138.218,112.365 142.074,112.365 148.500 C 112.365 154.926,113.274 158.782,116.215 164.835 C 118.151 168.821,119.182 170.221,122.981 174.019 C 126.779 177.818,128.179 178.849,132.165 180.785 C 138.218 183.726,142.074 184.635,148.500 184.635 C 154.926 184.635,158.782 183.726,164.835 180.785 C 168.821 178.849,170.221 177.818,174.019 174.019 C 177.818 170.221,178.849 168.821,180.785 164.835 C 183.726 158.782,184.635 154.926,184.635 148.500 C 184.635 142.074,183.726 138.218,180.785 132.165 C 178.849 128.179,177.818 126.779,174.019 122.981 C 170.221 119.182,168.821 118.151,164.835 116.215 C 162.249 114.958,158.670 113.578,156.883 113.147 C 152.341 112.054,143.807 112.156,139.343 113.357 M155.083 134.592 C 157.989 135.998,160.994 139.006,162.453 141.969 C 163.377 143.845,163.597 145.103,163.597 148.500 C 163.597 153.451,162.599 155.974,159.332 159.273 C 155.281 163.365,149.531 164.791,143.801 163.125 C 139.795 161.960,135.103 157.356,133.944 153.453 C 133.030 150.373,132.938 147.105,133.689 144.292 C 134.851 139.938,139.306 135.273,143.662 133.852 C 146.702 132.860,152.248 133.220,155.083 134.592 M81.815 263.029 C 82.691 263.402,83.964 264.311,84.645 265.049 C 85.678 266.168,85.882 266.880,85.882 269.358 C 85.882 272.144,85.771 272.428,84.066 273.991 C 81.711 276.149,79.355 276.609,76.877 275.395 C 71.577 272.797,71.496 265.849,76.735 263.217 C 78.812 262.173,79.727 262.139,81.815 263.029 " stroke="none" fill-rule="evenodd" fill="black"></path></symbol><symbol viewBox="0 0 12 12" id="icon-drag"><path d="M3.785 1.530 C 3.287 1.639,2.941 2.138,3.017 2.640 C 3.083 3.075,3.425 3.417,3.860 3.483 C 4.392 3.563,4.901 3.182,4.983 2.640 C 5.060 2.133,4.712 1.637,4.205 1.529 C 4.041 1.495,3.949 1.495,3.785 1.530 M7.785 1.530 C 7.287 1.639,6.941 2.138,7.017 2.640 C 7.100 3.188,7.620 3.571,8.156 3.481 C 8.583 3.408,8.918 3.068,8.983 2.640 C 9.060 2.133,8.712 1.637,8.205 1.529 C 8.041 1.495,7.949 1.495,7.785 1.530 M3.767 5.028 C 3.329 5.135,3.000 5.551,3.000 6.000 C 3.000 6.540,3.460 7.000,4.000 7.000 C 4.261 7.000,4.509 6.895,4.702 6.702 C 5.100 6.304,5.100 5.696,4.702 5.298 C 4.450 5.047,4.103 4.947,3.767 5.028 M7.785 5.030 C 7.287 5.139,6.941 5.638,7.017 6.140 C 7.100 6.688,7.620 7.071,8.156 6.981 C 8.583 6.908,8.918 6.568,8.983 6.140 C 9.060 5.633,8.712 5.137,8.205 5.029 C 8.041 4.995,7.949 4.995,7.785 5.030 M3.785 8.530 C 3.287 8.639,2.941 9.138,3.017 9.640 C 3.100 10.188,3.620 10.571,4.156 10.481 C 4.583 10.408,4.918 10.068,4.983 9.640 C 5.060 9.133,4.712 8.637,4.205 8.529 C 4.041 8.495,3.949 8.495,3.785 8.530 M7.785 8.530 C 7.287 8.639,6.941 9.138,7.017 9.640 C 7.083 10.075,7.425 10.417,7.860 10.483 C 8.392 10.563,8.901 10.182,8.983 9.640 C 9.060 9.133,8.712 8.637,8.205 8.529 C 8.041 8.495,7.949 8.495,7.785 8.530 " fill="#555555" stroke="none" fill-rule="evenodd"></path></symbol><symbol viewBox="0 0 24 24" id="icon-explorationicon"><path d="M1.643 2.068 C 1.546 2.103,1.392 2.206,1.300 2.298 C 0.974 2.624,1.000 1.915,1.000 10.500 C 1.000 19.083,0.974 18.376,1.299 18.701 C 1.614 19.016,1.392 19.000,5.539 19.000 C 9.552 19.000,9.433 18.994,9.920 19.228 C 10.206 19.366,10.634 19.794,10.772 20.080 C 10.912 20.371,11.000 20.725,11.000 20.998 C 11.001 21.555,11.445 21.998,12.000 21.998 C 12.549 21.998,12.999 21.554,13.000 21.012 C 13.001 20.078,13.685 19.233,14.592 19.044 C 14.738 19.014,15.949 19.000,18.475 19.000 C 22.607 19.000,22.387 19.016,22.701 18.701 C 23.026 18.376,23.000 19.083,23.000 10.500 C 23.000 1.917,23.026 2.624,22.701 2.299 C 22.389 1.987,22.556 2.000,18.903 2.000 C 15.450 2.000,15.292 2.008,14.600 2.201 C 14.214 2.309,13.579 2.612,13.176 2.880 C 13.002 2.996,12.667 3.286,12.431 3.524 L 12.001 3.957 11.551 3.507 C 10.794 2.752,10.058 2.345,9.000 2.095 C 8.727 2.031,8.388 2.024,5.260 2.015 C 2.208 2.006,1.800 2.012,1.643 2.068 M8.592 4.063 C 9.704 4.291,10.560 5.094,10.909 6.236 C 10.972 6.442,10.978 6.903,10.990 11.990 C 10.996 15.032,10.987 17.520,10.969 17.520 C 10.951 17.520,10.919 17.503,10.898 17.482 C 10.832 17.416,10.274 17.199,9.940 17.109 C 9.627 17.026,9.545 17.023,6.310 17.010 L 3.000 16.997 3.000 10.498 L 3.000 4.000 5.642 4.000 C 7.893 4.000,8.329 4.009,8.592 4.063 M21.000 10.498 L 21.000 16.997 17.690 17.009 C 14.416 17.022,14.377 17.023,14.060 17.111 C 13.722 17.204,13.273 17.378,13.141 17.467 C 13.098 17.496,13.048 17.520,13.031 17.520 C 13.014 17.520,13.000 15.089,13.000 12.118 C 13.000 6.202,12.992 6.422,13.235 5.839 C 13.605 4.956,14.437 4.269,15.382 4.066 C 15.612 4.017,16.126 4.006,18.330 4.003 L 21.000 4.000 21.000 10.498 " fill="#061027" stroke="none" fill-rule="evenodd"></path></symbol><symbol viewBox="0 0 24 24" id="icon-modelicon"><path d="M3.643 3.069 C 3.546 3.103,3.392 3.206,3.300 3.298 C 2.982 3.616,3.000 3.336,3.000 8.000 C 3.000 12.663,2.982 12.384,3.299 12.701 C 3.610 13.013,3.456 13.000,7.000 13.000 C 10.544 13.000,10.390 13.013,10.701 12.701 C 11.018 12.384,11.000 12.663,11.000 8.000 C 11.000 3.337,11.018 3.616,10.701 3.299 C 10.389 2.987,10.547 3.000,6.983 3.003 C 4.226 3.006,3.797 3.014,3.643 3.069 M13.643 3.069 C 13.546 3.103,13.392 3.206,13.300 3.298 C 12.997 3.601,13.000 3.572,13.000 6.000 C 13.000 8.427,12.997 8.399,13.299 8.701 C 13.610 9.013,13.456 9.000,17.000 9.000 C 20.544 9.000,20.390 9.013,20.701 8.701 C 21.003 8.399,21.000 8.427,21.000 6.000 C 21.000 3.573,21.003 3.601,20.701 3.299 C 20.389 2.987,20.547 3.000,16.983 3.003 C 14.226 3.006,13.797 3.014,13.643 3.069 M9.000 8.000 L 9.000 11.000 7.000 11.000 L 5.000 11.000 5.000 8.000 L 5.000 5.000 7.000 5.000 L 9.000 5.000 9.000 8.000 M19.000 6.000 L 19.000 7.000 17.000 7.000 L 15.000 7.000 15.000 6.000 L 15.000 5.000 17.000 5.000 L 19.000 5.000 19.000 6.000 M13.643 11.069 C 13.546 11.103,13.392 11.206,13.300 11.298 C 12.982 11.616,13.000 11.336,13.000 16.000 C 13.000 20.663,12.982 20.384,13.299 20.701 C 13.610 21.013,13.456 21.000,17.000 21.000 C 20.544 21.000,20.390 21.013,20.701 20.701 C 21.018 20.384,21.000 20.663,21.000 16.000 C 21.000 11.337,21.018 11.616,20.701 11.299 C 20.389 10.987,20.547 11.000,16.983 11.003 C 14.226 11.006,13.797 11.014,13.643 11.069 M19.000 16.000 L 19.000 19.000 17.000 19.000 L 15.000 19.000 15.000 16.000 L 15.000 13.000 17.000 13.000 L 19.000 13.000 19.000 16.000 M3.643 15.069 C 3.546 15.103,3.392 15.206,3.300 15.298 C 2.997 15.601,3.000 15.572,3.000 18.000 C 3.000 20.427,2.997 20.399,3.299 20.701 C 3.610 21.013,3.456 21.000,7.000 21.000 C 10.544 21.000,10.390 21.013,10.701 20.701 C 11.003 20.399,11.000 20.427,11.000 18.000 C 11.000 15.573,11.003 15.601,10.701 15.299 C 10.389 14.987,10.547 15.000,6.983 15.003 C 4.226 15.006,3.797 15.014,3.643 15.069 M9.000 18.000 L 9.000 19.000 7.000 19.000 L 5.000 19.000 5.000 18.000 L 5.000 17.000 7.000 17.000 L 9.000 17.000 9.000 18.000 " fill="#061027" stroke="none" fill-rule="evenodd"></path></symbol><symbol viewBox="0 0 16 17" id="icon-numericIcon"><path d="M6.397 1.555 C 6.231 1.602,6.018 1.743,5.906 1.879 C 5.719 2.108,5.717 2.114,5.532 3.794 C 5.437 4.648,5.353 5.385,5.346 5.432 L 5.331 5.518 3.872 5.526 L 2.413 5.533 2.260 5.605 C 2.065 5.696,1.872 5.890,1.772 6.094 C 1.702 6.236,1.693 6.280,1.693 6.507 C 1.693 6.733,1.702 6.777,1.772 6.920 C 1.872 7.123,2.065 7.317,2.260 7.408 L 2.413 7.480 3.767 7.488 L 5.120 7.496 5.104 7.634 C 5.095 7.711,5.044 8.163,4.990 8.640 L 4.893 9.507 3.653 9.520 L 2.413 9.533 2.260 9.605 C 2.065 9.696,1.872 9.890,1.772 10.094 C 1.702 10.236,1.693 10.280,1.693 10.507 C 1.693 10.733,1.702 10.777,1.772 10.920 C 1.872 11.123,2.065 11.317,2.260 11.408 L 2.413 11.480 3.540 11.488 C 4.436 11.494,4.667 11.503,4.667 11.530 C 4.667 11.549,4.594 12.212,4.505 13.002 C 4.394 13.984,4.348 14.494,4.357 14.609 C 4.386 14.943,4.599 15.244,4.920 15.402 C 5.063 15.472,5.107 15.480,5.333 15.480 C 5.552 15.479,5.608 15.470,5.740 15.408 C 5.933 15.318,6.144 15.108,6.230 14.921 C 6.289 14.791,6.315 14.610,6.468 13.221 C 6.563 12.366,6.647 11.628,6.655 11.580 L 6.669 11.493 7.668 11.493 C 8.483 11.493,8.667 11.500,8.667 11.529 C 8.667 11.549,8.594 12.212,8.505 13.002 C 8.394 13.984,8.348 14.494,8.357 14.609 C 8.386 14.943,8.599 15.244,8.920 15.402 C 9.063 15.472,9.107 15.480,9.333 15.480 C 9.552 15.479,9.608 15.470,9.740 15.408 C 9.933 15.318,10.144 15.108,10.230 14.921 C 10.289 14.791,10.315 14.610,10.468 13.221 C 10.563 12.366,10.647 11.628,10.654 11.581 L 10.669 11.495 12.128 11.488 L 13.587 11.480 13.740 11.408 C 13.935 11.317,14.144 11.108,14.235 10.913 C 14.296 10.781,14.306 10.726,14.306 10.507 C 14.306 10.288,14.296 10.233,14.235 10.100 C 14.144 9.905,13.935 9.697,13.740 9.605 L 13.587 9.533 12.233 9.526 L 10.880 9.518 10.896 9.379 C 10.905 9.302,10.956 8.850,11.010 8.373 L 11.107 7.507 12.347 7.493 L 13.587 7.480 13.740 7.408 C 13.935 7.317,14.144 7.108,14.235 6.913 C 14.296 6.781,14.306 6.726,14.306 6.507 C 14.306 6.288,14.296 6.233,14.235 6.100 C 14.144 5.905,13.935 5.697,13.740 5.605 L 13.587 5.533 12.460 5.525 C 11.564 5.519,11.333 5.510,11.333 5.483 C 11.333 5.464,11.406 4.802,11.495 4.011 C 11.670 2.453,11.674 2.336,11.562 2.091 C 11.477 1.905,11.266 1.695,11.073 1.605 C 10.941 1.544,10.886 1.534,10.667 1.534 C 10.448 1.534,10.393 1.544,10.260 1.605 C 10.067 1.696,9.856 1.905,9.770 2.093 C 9.711 2.222,9.685 2.403,9.532 3.792 C 9.437 4.647,9.353 5.386,9.345 5.433 L 9.331 5.520 8.332 5.520 C 7.517 5.520,7.333 5.513,7.333 5.484 C 7.333 5.465,7.406 4.802,7.495 4.011 C 7.594 3.128,7.652 2.510,7.645 2.410 C 7.622 2.083,7.386 1.750,7.078 1.609 C 6.899 1.527,6.584 1.502,6.397 1.555 M9.104 7.633 C 9.095 7.710,9.044 8.163,8.990 8.640 L 8.893 9.507 7.884 9.514 L 6.875 9.521 6.891 9.420 C 6.899 9.365,6.949 8.924,7.001 8.440 C 7.054 7.956,7.101 7.545,7.107 7.527 C 7.116 7.501,7.342 7.493,8.119 7.493 L 9.120 7.493 9.104 7.633 " stroke="none" fill-rule="evenodd" fill="black"></path></symbol><symbol viewBox="0 0 16 17" id="icon-stringIcon"><path d="M2.355 2.236 C 2.089 2.328,1.876 2.524,1.754 2.789 C 1.694 2.919,1.693 2.927,1.693 4.173 L 1.693 5.427 1.765 5.580 C 1.857 5.775,2.065 5.984,2.260 6.075 C 2.393 6.137,2.447 6.146,2.667 6.146 C 2.891 6.145,2.938 6.136,3.079 6.068 C 3.282 5.969,3.462 5.790,3.562 5.586 L 3.640 5.427 3.649 4.793 L 3.658 4.160 5.335 4.160 L 7.013 4.160 7.013 8.505 L 7.013 12.849 6.380 12.858 L 5.747 12.867 5.587 12.945 C 5.384 13.045,5.190 13.239,5.099 13.434 C 5.037 13.566,5.027 13.621,5.027 13.840 C 5.027 14.059,5.037 14.114,5.099 14.246 C 5.190 14.442,5.398 14.650,5.594 14.742 L 5.747 14.813 8.001 14.813 L 10.254 14.813 10.432 14.726 C 10.639 14.624,10.801 14.457,10.903 14.240 C 10.963 14.114,10.973 14.057,10.973 13.840 C 10.973 13.621,10.963 13.566,10.901 13.434 C 10.810 13.239,10.616 13.045,10.413 12.945 L 10.253 12.867 9.620 12.858 L 8.987 12.849 8.987 8.505 L 8.987 4.160 10.665 4.160 L 12.342 4.160 12.351 4.793 C 12.360 5.416,12.361 5.429,12.432 5.580 C 12.523 5.775,12.717 5.968,12.920 6.068 C 13.064 6.139,13.106 6.147,13.333 6.146 C 13.558 6.145,13.605 6.136,13.746 6.068 C 13.949 5.969,14.143 5.775,14.235 5.580 L 14.307 5.427 14.307 4.173 L 14.307 2.920 14.237 2.773 C 14.134 2.556,13.972 2.389,13.766 2.288 L 13.588 2.200 8.041 2.194 C 2.757 2.188,2.487 2.190,2.355 2.236 " stroke="none" fill-rule="evenodd" fill="black"></path></symbol><symbol viewBox="0 0 16 17" id="icon-timeIcon"><path d="M5.021 0.901 C 4.752 0.998,4.539 1.195,4.422 1.455 C 4.377 1.557,4.361 1.654,4.352 1.887 L 4.340 2.187 3.733 2.187 C 3.035 2.187,2.808 2.218,2.453 2.365 C 1.880 2.601,1.428 3.054,1.191 3.627 C 1.003 4.083,1.013 3.760,1.013 9.173 C 1.013 14.586,1.003 14.264,1.191 14.720 C 1.429 15.295,1.879 15.744,2.458 15.984 C 2.908 16.170,2.593 16.160,8.000 16.160 C 13.398 16.160,13.085 16.170,13.539 15.987 C 14.108 15.757,14.584 15.282,14.813 14.712 C 14.996 14.258,14.987 14.571,14.987 9.173 C 14.987 3.760,14.997 4.083,14.809 3.627 C 14.571 3.052,14.122 2.602,13.547 2.365 C 13.192 2.218,12.965 2.187,12.267 2.187 L 11.660 2.187 11.648 1.887 C 11.639 1.635,11.626 1.562,11.567 1.434 C 11.478 1.239,11.269 1.030,11.073 0.938 C 10.940 0.876,10.887 0.867,10.667 0.867 C 10.449 0.868,10.392 0.878,10.260 0.939 C 10.064 1.030,9.856 1.239,9.767 1.434 C 9.708 1.562,9.695 1.635,9.685 1.887 L 9.673 2.187 8.000 2.187 L 6.326 2.187 6.315 1.887 C 6.307 1.633,6.295 1.564,6.236 1.440 C 6.069 1.084,5.771 0.883,5.382 0.863 C 5.211 0.854,5.128 0.863,5.021 0.901 M4.352 4.460 C 4.362 4.720,4.374 4.781,4.440 4.919 C 4.537 5.122,4.731 5.317,4.927 5.407 C 5.057 5.467,5.118 5.477,5.333 5.479 C 5.561 5.480,5.603 5.472,5.746 5.402 C 5.951 5.301,6.144 5.107,6.233 4.913 C 6.292 4.784,6.305 4.712,6.315 4.460 L 6.327 4.160 8.000 4.160 L 9.673 4.160 9.685 4.460 C 9.695 4.712,9.708 4.784,9.767 4.913 C 9.856 5.107,10.049 5.301,10.254 5.402 C 10.397 5.472,10.439 5.480,10.667 5.479 C 10.882 5.477,10.943 5.467,11.073 5.407 C 11.270 5.316,11.478 5.108,11.566 4.913 C 11.623 4.786,11.637 4.708,11.647 4.460 L 11.660 4.160 12.197 4.160 C 13.054 4.160,13.013 4.102,13.013 5.313 L 13.013 6.187 8.000 6.187 L 2.987 6.187 2.987 5.313 C 2.987 4.102,2.946 4.160,3.803 4.160 L 4.340 4.160 4.352 4.460 M13.013 11.033 C 13.013 14.246,13.026 14.041,12.827 14.140 C 12.739 14.184,12.453 14.187,8.000 14.187 C 3.547 14.187,3.261 14.184,3.173 14.140 C 2.974 14.041,2.987 14.246,2.987 11.033 L 2.987 8.160 8.000 8.160 L 13.013 8.160 13.013 11.033 " stroke="none" fill-rule="evenodd" fill="black"></path></symbol></svg>